<svg width="1365" height="206" viewBox="0 0 1365 206" fill="none" xmlns="http://www.w3.org/2000/svg">
<g filter="url(#filter0_f_108_2)">
<path d="M203.381 15C215.096 27.471 215.192 42.2409 213.774 48.0674C219.916 40.8238 235.788 25.4871 250.148 22.0859C250.148 30.0219 247.629 38.9339 246.369 42.3984L243.535 49.0127C248.259 45.391 259.03 38.1475 264.32 38.1475C263.565 41.5486 264.005 46.1777 264.32 48.0674C273.926 43.8158 295.026 35.8801 302.584 38.1475C302.584 46.8395 301.324 56.8857 300.694 60.8223C306.363 53.1065 316.189 35.6912 310.143 27.7549C318.079 37.2027 320.062 45.8634 320.062 49.0127L333.763 32.0059C338.959 25.8652 355.304 27.5661 360.217 38.1475L365.413 49.0127C373.286 34.8409 393.095 13.6772 409.346 42.3984C415.014 53.358 419.581 69.0107 421.155 75.4668L440.523 46.6504C442.728 43.0287 448.649 37.108 454.695 42.3984C461.781 35.7853 483.039 40.5094 484.929 55.1533C497.211 47.4375 524.515 35.4078 535.475 49.0127C548.229 42.3992 556.733 40.0369 566.653 46.6504C576.574 53.2639 598.776 62.7122 606.334 63.1846C612.381 63.5625 614.207 71.5302 614.364 75.4668C619.246 76.2541 628.914 80.474 628.536 91.0557C628.064 104.283 646.488 102.393 654.046 96.252C661.604 90.1108 675.304 98.1417 679.556 114.203C683.908 130.645 696.562 123.178 723.016 117.037C727.267 116.092 737.566 114.581 744.746 116.093C753.722 117.982 779.229 109.479 782.064 103.811C787.733 114.203 783.009 119.399 778.758 126.013C775.357 131.303 770.884 133.572 769.782 134.044C782.537 133.572 810.409 133.193 819.856 135.461C831.666 138.295 856.231 129.32 863.789 135.461C874.182 135.461 888.826 132.626 890.716 136.405C897.802 130.737 911.501 135.933 912.446 137.822C913.391 139.712 937.01 117.037 934.648 105.228C944.474 109.007 947.246 118.455 947.403 122.706C951.34 121.761 959.308 122.139 959.686 131.209C964.882 131.209 986.139 123.65 994.17 108.534C1001.73 109.29 994.485 123.965 989.919 131.209C995.116 131.051 1007.96 128.941 1017.79 121.761C1027.62 114.58 1036.37 104.912 1039.52 100.976C1037.16 105.542 1031.21 116.565 1026.29 124.123C1033.38 118.927 1039.52 126.013 1038.58 129.792C1044.72 128.375 1051.8 122.706 1053.22 117.982C1055.74 120.817 1058.42 129.698 1048.97 142.547C1057.94 143.019 1075.89 132.154 1083.92 123.179C1090.35 115.998 1085.66 107.275 1082.51 103.811C1084.87 103.023 1089.88 102.488 1091.01 106.645C1094.79 102.865 1101.4 101.291 1104.24 100.976C1100.62 102.235 1093.94 107.401 1096.21 117.982C1102.63 111.936 1113.69 106.015 1118.41 103.811C1112.74 109.007 1101.78 121.478 1103.29 129.792C1108.02 129.792 1129.75 117.51 1138.25 104.755C1141.56 111.841 1129.9 127.745 1128.33 131.209L1130.22 142.547C1135.73 135.934 1148.26 123.273 1154.31 125.54C1148.26 132.72 1142.34 144.594 1140.14 149.633C1143.6 148.845 1150.91 149.254 1152.42 157.19C1155.45 156.056 1159.67 151.68 1161.4 149.633C1162.97 139.555 1169.62 118.832 1183.6 116.564C1189.27 112.312 1192.1 89.6383 1181.71 88.6934C1185.49 85.3867 1190.69 84.4425 1192.1 91.5283C1193.24 97.1968 1193.52 100.503 1193.52 101.448C1193.99 98.4564 1195.88 94.0793 1199.66 100.504C1203.44 106.928 1204.39 114.518 1204.39 117.51C1209.27 114.046 1219.5 105.039 1221.39 96.7246C1218.75 90.3003 1212.73 86.8043 1210.05 85.8594C1212.73 85.0721 1219.12 84.82 1223.28 90.1104C1226.59 83.4971 1228.95 74.9948 1232.26 72.1602C1230.84 81.1355 1228.48 90.5834 1230.37 92.9453C1230.37 91.2133 1231.03 87.5597 1233.67 86.8037C1233.67 91.0553 1245.01 106.172 1250.68 109.007C1252.57 105.228 1265.8 90.5832 1270.99 88.6934C1271.47 85.3867 1270.52 83.0244 1265.8 83.0244C1267.84 81.6072 1272.69 80.096 1275.72 85.3867C1277.99 83.8754 1281.39 84.4417 1282.8 84.9141C1281.07 85.3864 1277.8 86.8039 1278.55 88.6934C1280.06 89.8271 1285.79 97.0397 1288.47 100.504L1300.28 122.233C1304.06 118.138 1306.52 93.7947 1297.45 74.5215C1306.9 78.3006 1310.2 105.543 1310.2 116.093C1317.92 110.109 1333.25 92.6624 1336.66 91.5283C1336.66 83.0253 1322.48 62.712 1305.48 58.9326C1316.06 52.5086 1334.14 71.3723 1341.85 81.6074C1340.44 67.593 1339.59 36.1636 1347.52 22.5586C1347.52 34.8411 1341.38 69.325 1351.77 83.0244C1354.8 66.3965 1361.22 60.0349 1364.06 58.9326V450.548H-4V58.46C0.0940672 64.2861 8.94341 78.8676 11.5889 90.583C14.8957 74.9939 24.3441 41.4541 53.1602 34.3682C42.7675 64.6014 50.3254 110.896 55.9941 117.51C59.7733 108.534 75.3624 74.9938 103.706 58.46C98.4153 73.1986 101.502 86.0164 103.706 90.583C114.729 68.6954 147.261 23.5029 189.209 17.834C176.36 37.8635 174.093 47.9102 174.565 50.4297C185.588 44.131 206.782 28.227 203.381 15ZM1225.64 102.393C1226.02 104.66 1222.34 110.896 1220.45 113.73L1228.01 105.228C1228.32 104.44 1228.29 102.77 1225.64 102.393ZM1334.77 102.393C1332.12 103.526 1327.05 109.794 1324.85 112.786C1328.63 110.141 1330.83 111.369 1331.46 112.313C1332.56 110.266 1334.77 105.416 1334.77 102.393ZM1273.83 92.4727C1272.57 93.1025 1269.1 95.4017 1265.33 99.5586C1261.55 103.716 1260.6 108.219 1260.6 109.951C1265.51 104.661 1269.58 102.708 1270.99 102.393C1272.88 102.235 1277.98 102.96 1283.28 107.117C1281.76 100.315 1276.35 94.5198 1273.83 92.4727ZM1360.68 75.1699C1359.25 78.7335 1356.7 86.8975 1357.44 92.4727C1357.34 90.961 1359.6 88.0634 1360.75 86.8037L1360.68 75.1699Z" fill="white"/>
</g>
<defs>
<filter id="filter0_f_108_2" x="-19" y="0" width="1398.06" height="465.548" filterUnits="userSpaceOnUse" color-interpolation-filters="sRGB">
<feFlood flood-opacity="0" result="BackgroundImageFix"/>
<feBlend mode="normal" in="SourceGraphic" in2="BackgroundImageFix" result="shape"/>
<feGaussianBlur stdDeviation="7.5" result="effect1_foregroundBlur_108_2"/>
</filter>
</defs>
</svg>
